<?xml version="1.0" encoding="utf-8"?>
<!-- Generator: Adobe Illustrator 25.1.0, SVG Export Plug-In . SVG Version: 6.00 Build 0)  -->
<svg version="1.1" id="katman_1" xmlns="http://www.w3.org/2000/svg" xmlns:xlink="http://www.w3.org/1999/xlink" x="0px" y="0px"
	 viewBox="0 0 72 33" style="enable-background:new 0 0 72 33;" xml:space="preserve">
<style type="text/css">
	.st0{fill-rule:evenodd;clip-rule:evenodd;}
</style>
<g>
	<path class="st0" d="M61.9,7.4c-0.9,0-1.8,0.5-2.2,1.3l-4,9.1l-1.4-9.1c-0.2-0.9-0.7-1.3-1.7-1.3h-5l4.3,15.1c0.1,0.3,0.1,0.6,0,1
		c-0.2,1.3-1.4,2.3-2.7,2.3h-2.8c-0.7,0-1.2,0.4-1.4,1.4L44.4,31h5c2.6,0,5.6-1.3,7.7-4.9L67,7.4L61.9,7.4L61.9,7.4z"/>
	<path class="st0" d="M13,2.9c1.5,0,2.2,0.6,1.9,2.1l-0.4,2.4h3.4l-0.8,4.3h-3.4L12.8,17c-0.3,1.8,1.5,2.1,2.5,2.1
		c0.2,0,0.4,0,0.5,0L15,23.8c-0.3,0-0.5,0.1-1.1,0.1c-2.6,0-7.5-0.7-6.5-6.2l1.1-6H6l0.7-4.3h2.5L10,2.9L13,2.9L13,2.9z"/>
	<path class="st0" d="M41.7,7.6l-0.9,5c1.1,0.6,1.8,1.7,1.8,3c0,1.7-1.3,3.1-2.9,3.3l-0.9,5c0.2,0,0.3,0,0.5,0
		c4.6,0,8.3-3.7,8.3-8.3C47.6,11.8,45.1,8.6,41.7,7.6"/>
	<path class="st0" d="M37.8,18.5c-1.1-0.5-1.8-1.7-1.8-3c0-1.7,1.3-3.1,2.9-3.3l0.9-5c-0.2,0-0.3,0-0.5,0c-4.6,0-8.3,3.7-8.3,8.3
		c0,3.8,2.5,6.9,5.9,8L37.8,18.5z"/>
	<path class="st0" d="M19.9,7.4h2.9c1.5,0,2.2,0.6,1.9,2.1l-0.3,1.8c1.1-2.2,3.5-4.1,5.9-4.1c0.3,0,0.6,0.1,0.6,0.1l-0.9,5.4
		c0,0-0.4-0.1-1.1-0.1c-1.3,0-3.5,0.4-4.7,2.9c-0.3,0.6-0.5,1.3-0.7,2.2l-1.1,6H17L19.9,7.4z"/>
	<path class="st0" d="M65.7,24.1c0-0.1,0-0.2-0.1-0.2c-0.1-0.1-0.2-0.1-0.3-0.1h-0.4v0.7h0.4c0.1,0,0.2,0,0.3-0.1
		C65.6,24.2,65.7,24.2,65.7,24.1 M66,25.4h-0.3l-0.4-0.8h-0.3v0.8h-0.3v-1.9h0.7c0.2,0,0.3,0.1,0.4,0.2c0.1,0.1,0.2,0.2,0.2,0.4
		c0,0.3-0.1,0.4-0.4,0.5L66,25.4z M66.7,24.5c0,0.4-0.1,0.8-0.4,1.1c-0.3,0.3-0.6,0.4-1,0.4c-0.4,0-0.8-0.1-1-0.4
		c-0.3-0.3-0.4-0.6-0.4-1.1c0-0.4,0.1-0.8,0.4-1.1c0.3-0.3,0.6-0.4,1-0.4c0.4,0,0.8,0.1,1,0.4C66.6,23.7,66.7,24,66.7,24.5 M67,24.5
		c0,0.5-0.2,0.9-0.5,1.2c-0.3,0.3-0.8,0.5-1.2,0.5c-0.5,0-0.9-0.2-1.2-0.5c-0.3-0.3-0.5-0.8-0.5-1.2c0-0.5,0.2-0.9,0.5-1.2
		c0.3-0.3,0.8-0.5,1.2-0.5c0.5,0,0.9,0.2,1.2,0.5C66.8,23.6,67,24,67,24.5"/>
</g>
</svg>
