<svg id="katman_1" data-name="katman 1" xmlns="http://www.w3.org/2000/svg" viewBox="0 0 76.94 24.85"><path d="M90.66,15,80.58,39H74l-5-19.18a2.64,2.64,0,0,0-1.47-2.12,26.14,26.14,0,0,0-6.14-2l.15-.7H72.17A2.9,2.9,0,0,1,75,17.42l2.62,13.91L84.13,15Zm25.75,16.19c0-6.34-8.77-6.69-8.71-9.53,0-.86.84-1.78,2.63-2a11.62,11.62,0,0,1,6.13,1.08l1.09-5.1a16.73,16.73,0,0,0-5.81-1.07c-6.15,0-10.47,3.27-10.51,8,0,3.46,3.09,5.39,5.44,6.54s3.24,1.93,3.23,3c0,1.61-1.93,2.32-3.72,2.35a13,13,0,0,1-6.39-1.52L98.67,38.1a18.75,18.75,0,0,0,6.91,1.28c6.53,0,10.81-3.22,10.83-8.22M132.64,39h5.75l-5-24h-5.31a2.85,2.85,0,0,0-2.65,1.76L116.08,39h6.53l1.3-3.59h8Zm-6.94-8.52,3.27-9,1.88,9ZM99.54,15,94.4,39H88.18l5.15-24Z" transform="translate(-61.44 -14.53)"/></svg>