<svg width="200" height="200" viewBox="0 0 45 45" xmlns="http://www.w3.org/2000/svg">
  <path fill="#FFFFFF" d="M 31.127 1.96 a 22.073 22.073 0 0 1 6.284 4.298 c -7.544 -0.32 -14.177 2.617 -17.648 7.106 c -1.563 2.021 -2.594 4.715 -1.928 7.266 a 6.875 6.875 0 0 0 1.701 3.015 c -2.926 -1.766 -3.286 -5.638 -2.407 -8.762 C 18.895 8.516 24.442 3.95 31.127 1.96 Z M 14.14 25.618 c 2.924 1.408 6.8 1.725 9.047 -0.85 a 6.875 6.875 0 0 1 -3.264 1.152 c -2.628 0.213 -5.102 -1.27 -6.821 -3.16 c -3.82 -4.199 -5.56 -11.243 -3.933 -18.619 A 21.887 21.887 0 0 0 3.844 9.59 v 0.005 c 0.802 6.927 4.334 13.18 10.296 16.024 Z m 4.152 4.233 c 3.145 -0.8 6.318 -3.05 6.384 -6.466 a 6.876 6.876 0 0 1 -1.76 2.98 c -1.877 1.853 -4.725 2.307 -7.257 1.964 C 10.034 27.567 4.171 23.29 0.677 16.59 a 22.09 22.09 0 0 0 -0.57 7.606 c 5.066 4.79 11.79 7.308 18.185 5.655 Z m 3.59 -10.787 a 6.874 6.874 0 0 1 3.46 0.034 c 2.543 0.699 4.36 2.938 5.33 5.303 C 32.823 29.652 32.05 36.865 28 43.24 a 21.92 21.92 0 0 0 6.866 -3.296 c 1.618 -6.785 0.438 -13.872 -4.193 -18.585 c -2.266 -2.323 -5.8 -3.947 -8.791 -2.296 Z m 2.311 11.362 c 1.895 -2.635 2.88 -6.398 0.735 -9.057 c 0.195 0.445 0.725 1.726 0.567 3.414 c -0.247 2.625 -2.137 4.804 -4.297 6.169 c -4.8 3.032 -12.04 3.523 -19.024 0.637 a 21.901 21.901 0 0 0 4.45 6.193 c 6.961 0.414 13.733 -1.98 17.57 -7.356 Z m -3.036 -5.555 a 6.875 6.875 0 0 1 -3.24 -1.216 c -2.15 -1.526 -3.093 -4.252 -3.195 -6.805 c -0.226 -5.671 2.968 -12.185 8.954 -16.79 a 22.154 22.154 0 0 0 -7.582 0.753 c -3.838 5.822 -5.152 12.882 -2.413 18.893 c 1.334 2.959 4.1 5.693 7.476 5.165 Z m 7.063 -8.91 c -3.23 -0.322 -6.98 0.705 -8.211 3.893 a 6.874 6.874 0 0 1 2.673 -2.198 c 2.397 -1.099 5.229 -0.552 7.49 0.636 c 5.025 2.64 9.07 8.663 10.064 16.15 a 21.887 21.887 0 0 0 3.142 -6.938 c -3.122 -6.238 -8.581 -10.908 -15.158 -11.542 Z m -5.35 -2.557 c -2.68 1.828 -4.894 5.026 -3.787 8.26 a 6.874 6.874 0 0 1 0.635 -3.403 c 1.13 -2.382 3.65 -3.783 6.147 -4.327 c 5.545 -1.208 12.513 0.806 18.087 5.9 a 22.073 22.073 0 0 0 -2.05 -7.331 c -6.401 -2.772 -13.585 -2.84 -19.031 0.9 Z m 6.213 13.668 c -0.242 -3.236 -1.906 -6.752 -5.259 -7.41 a 6.875 6.875 0 0 1 2.63 2.25 c 1.498 2.17 1.45 5.054 0.673 7.488 c -1.727 5.408 -6.959 10.438 -14.162 12.717 A 21.94 21.94 0 0 0 20.353 44 c 5.598 -4.157 9.247 -10.343 8.73 -16.928 Z" />
</svg>